<svg width="80" height="80" viewBox="0 0 80 80" xmlns="http://www.w3.org/2000/svg">
  <!-- Pika body -->
  <ellipse cx="40" cy="42" rx="18" ry="16" fill="#4A90E2" />

  <!-- Ears -->
  <ellipse cx="31" cy="26" rx="5" ry="11" fill="#357ABD" transform="rotate(-15 31 26)" />
  <ellipse cx="49" cy="26" rx="5" ry="11" fill="#357ABD" transform="rotate(15 49 26)" />

  <!-- Inner ears -->
  <ellipse cx="31" cy="27" rx="2.5" ry="6" fill="#4A90E2" transform="rotate(-15 31 27)" />
  <ellipse cx="49" cy="27" rx="2.5" ry="6" fill="#4A90E2" transform="rotate(15 49 27)" />

  <!-- Eyes -->
  <ellipse cx="35" cy="38" rx="3.5" ry="4" fill="white" />
  <ellipse cx="45" cy="38" rx="3.5" ry="4" fill="white" />
  <ellipse cx="35" cy="38.5" rx="2.5" ry="3" fill="#2d3748" />
  <ellipse cx="45" cy="38.5" rx="2.5" ry="3" fill="#2d3748" />

  <!-- Eye highlights -->
  <ellipse cx="34" cy="37" rx="1" ry="1.5" fill="white" />
  <ellipse cx="44" cy="37" rx="1" ry="1.5" fill="white" />

  <!-- Nose -->
  <ellipse cx="40" cy="44" rx="1.5" ry="1" fill="#357ABD" />

  <!-- Small mouth -->
  <path d="M 38 46 Q 40 47.5 42 46" stroke="#357ABD" stroke-width="1" fill="none" />

  <!-- Money symbol overlay -->
  <circle cx="58" cy="22" r="10" fill="#10B981" opacity="0.9" />
  <text x="58" y="27" text-anchor="middle" fill="white" font-family="Arial, sans-serif" font-size="12"
    font-weight="bold">
    $
  </text>
</svg>